<svg width="129" height="37" fill="none" xmlns="http://www.w3.org/2000/svg"><g filter="url(#filter0_d_236_63)"><g filter="url(#filter1_d_236_63)"><path fill-rule="evenodd" clip-rule="evenodd" d="M7.942 35.746L0 35.747l10.148-17.893L20.272 0l10.355 17.929L40.98 35.754l-8.083.005-12.623-21.835L7.942 35.746z" fill="#7EA9C9"/></g><g filter="url(#filter2_d_236_63)"><path fill-rule="evenodd" clip-rule="evenodd" d="M20.423 27.245a4.6 4.6 0 011.732.337 4.534 4.534 0 011.468.96c.42.41.753.899.98 1.436a4.345 4.345 0 01-.418 4.154 4.504 4.504 0 01-2.03 1.63 4.618 4.618 0 01-2.614.252 4.557 4.557 0 01-2.317-1.211 4.4 4.4 0 01-1.238-2.267 4.34 4.34 0 01.257-2.558 4.45 4.45 0 011.667-1.987 4.596 4.596 0 012.513-.746z" fill="#7EA9C9"/></g></g><path d="M52.25 22.72v13.22h-4.5V19.033h4.234l.266 3.688zm5.094-3.796l-.078 4.172a10.884 10.884 0 00-.797-.078 8.09 8.09 0 00-.828-.047c-.636 0-1.188.083-1.657.25a2.95 2.95 0 00-1.156.703 3.07 3.07 0 00-.687 1.14c-.146.448-.23.959-.25 1.532l-.907-.282c0-1.093.11-2.099.328-3.015.22-.927.537-1.735.954-2.422.427-.688.948-1.219 1.562-1.594.615-.375 1.318-.562 2.11-.562.25 0 .505.02.765.062.26.031.474.078.64.14zm14.707.11v3.187h-9.843v-3.188h9.843zm-7.406-4.173h4.5v15.985c0 .49.063.864.188 1.125.135.26.333.442.593.547.26.093.589.14.985.14.28 0 .53-.01.75-.031a9.81 9.81 0 00.578-.094l.015 3.313a8.453 8.453 0 01-1.25.297 9.375 9.375 0 01-1.484.109c-.99 0-1.854-.162-2.594-.484a3.573 3.573 0 01-1.687-1.594c-.396-.73-.594-1.688-.594-2.875V14.86zm18.239 4.172V35.94h-4.516V19.033h4.516zm-4.797-4.406c0-.656.229-1.198.687-1.625.459-.427 1.073-.64 1.844-.64.76 0 1.37.213 1.828.64.469.427.703.969.703 1.625s-.234 1.198-.703 1.625c-.458.427-1.067.64-1.828.64-.77 0-1.385-.213-1.844-.64-.458-.427-.687-.969-.687-1.625zm21.16 17.5v-7.531c0-.542-.088-1.006-.265-1.39a1.977 1.977 0 00-.828-.923c-.365-.219-.839-.328-1.422-.328-.5 0-.932.089-1.297.266a1.877 1.877 0 00-.844.734c-.198.313-.297.682-.297 1.11h-4.5a4.4 4.4 0 01.5-2.047c.334-.646.818-1.214 1.454-1.704.635-.5 1.39-.89 2.265-1.171.885-.282 1.875-.422 2.969-.422 1.312 0 2.479.218 3.5.656 1.021.438 1.823 1.094 2.406 1.969.594.875.891 1.968.891 3.281v7.234c0 .927.057 1.688.172 2.282.114.583.281 1.093.5 1.53v.267h-4.547c-.219-.459-.386-1.032-.5-1.72a14.16 14.16 0 01-.156-2.093zm.594-6.484l.032 2.546h-2.516c-.594 0-1.11.068-1.547.204-.438.135-.797.328-1.078.578-.281.24-.49.52-.625.843a2.92 2.92 0 00-.188 1.063c0 .385.089.734.266 1.047.177.302.432.541.766.719.333.166.724.25 1.172.25.677 0 1.265-.136 1.765-.407.5-.27.885-.604 1.156-1 .282-.396.428-.77.438-1.125l1.187 1.907c-.166.427-.395.87-.687 1.328-.281.458-.64.89-1.078 1.297a5.564 5.564 0 01-1.578.984c-.615.25-1.344.375-2.188.375-1.073 0-2.047-.214-2.922-.64-.864-.438-1.552-1.037-2.062-1.797-.5-.771-.75-1.646-.75-2.625 0-.886.166-1.672.5-2.36a4.604 4.604 0 011.469-1.734c.656-.48 1.474-.839 2.453-1.078.979-.25 2.114-.375 3.406-.375h2.61zm15.333-3V35.94h-4.5V19.033h4.219l.281 3.61zm-.656 4.25h-1.219c0-1.25.161-2.375.484-3.375.323-1.01.776-1.87 1.36-2.579a5.837 5.837 0 012.078-1.64c.812-.386 1.718-.578 2.718-.578.792 0 1.516.114 2.172.343.657.23 1.219.594 1.688 1.094.479.5.844 1.162 1.094 1.985.26.822.39 1.828.39 3.015V35.94h-4.531V25.143c0-.75-.104-1.334-.313-1.75a1.752 1.752 0 00-.921-.875c-.396-.178-.886-.266-1.469-.266-.604 0-1.13.12-1.578.36a3.121 3.121 0 00-1.094 1 4.73 4.73 0 00-.641 1.468 7.195 7.195 0 00-.218 1.813z" fill="#7EA9C9"/><defs><filter id="filter0_d_236_63" x="0" y="0" width="40.981" height="36.099" filterUnits="userSpaceOnUse" color-interpolation-filters="sRGB"><feFlood flood-opacity="0" result="BackgroundImageFix"/><feColorMatrix in="SourceAlpha" values="0 0 0 0 0 0 0 0 0 0 0 0 0 0 0 0 0 0 127 0" result="hardAlpha"/><feOffset/><feComposite in2="hardAlpha" operator="out"/><feColorMatrix values="0 0 0 0 0 0 0 0 0 0 0 0 0 0 0 0 0 0 0.57 0"/><feBlend in2="BackgroundImageFix" result="effect1_dropShadow_236_63"/><feBlend in="SourceGraphic" in2="effect1_dropShadow_236_63" result="shape"/></filter><filter id="filter1_d_236_63" x="0" y="0" width="40.981" height="35.759" filterUnits="userSpaceOnUse" color-interpolation-filters="sRGB"><feFlood flood-opacity="0" result="BackgroundImageFix"/><feColorMatrix in="SourceAlpha" values="0 0 0 0 0 0 0 0 0 0 0 0 0 0 0 0 0 0 127 0" result="hardAlpha"/><feOffset/><feComposite in2="hardAlpha" operator="out"/><feColorMatrix values="0 0 0 0 0 0 0 0 0 0 0 0 0 0 0 0 0 0 0.33 0"/><feBlend in2="BackgroundImageFix" result="effect1_dropShadow_236_63"/><feBlend in="SourceGraphic" in2="effect1_dropShadow_236_63" result="shape"/></filter><filter id="filter2_d_236_63" x="15.899" y="27.245" width="9.049" height="8.854" filterUnits="userSpaceOnUse" color-interpolation-filters="sRGB"><feFlood flood-opacity="0" result="BackgroundImageFix"/><feColorMatrix in="SourceAlpha" values="0 0 0 0 0 0 0 0 0 0 0 0 0 0 0 0 0 0 127 0" result="hardAlpha"/><feOffset/><feComposite in2="hardAlpha" operator="out"/><feColorMatrix values="0 0 0 0 0 0 0 0 0 0 0 0 0 0 0 0 0 0 0.29 0"/><feBlend in2="BackgroundImageFix" result="effect1_dropShadow_236_63"/><feBlend in="SourceGraphic" in2="effect1_dropShadow_236_63" result="shape"/></filter></defs></svg>