<svg width="95" height="47" fill="none" xmlns="http://www.w3.org/2000/svg"><path d="M26.12 38V19.36l-7.28 13.88h-3.08L8.48 19.36V38H2.96V9.6h5.92l8.4 16.16L25.76 9.6h5.88V38h-5.52z" fill="#F88500"/><path d="M35.976 24v-8.368h2.144v5.504l3.76-5.52h1.952V24h-2.144v-5.376L37.976 24h-2zm9.364 0l2.128-3.264a2.162 2.162 0 01-1.2-.816c-.288-.405-.431-.939-.431-1.6 0-.555.127-1.035.383-1.44a2.59 2.59 0 011.056-.944c.448-.235.966-.352 1.552-.352h3.984V24H50.67v-2.896h-1.136L47.692 24H45.34zm3.744-4.432h1.584v-2.336h-1.504c-.383 0-.688.107-.912.32-.224.213-.336.49-.336.832 0 .341.097.624.289.848.202.224.495.336.88.336z" fill="#6A5858"/><path d="M39.864 37.16c-.672 0-1.28-.112-1.824-.336a4.283 4.283 0 01-1.392-.944 4.503 4.503 0 01-.896-1.376 4.518 4.518 0 01-.304-1.648c0-.8.176-1.53.528-2.192a4.132 4.132 0 011.536-1.584c.672-.405 1.461-.608 2.368-.608.917 0 1.701.203 2.352.608.65.395 1.147.923 1.488 1.584a4.37 4.37 0 01.528 2.112 6.473 6.473 0 01-.048.72h-6.48c.043.427.165.8.368 1.12.213.32.48.565.8.736.33.16.683.24 1.056.24.427 0 .827-.101 1.2-.304.384-.213.645-.49.784-.832l1.84.512a3.442 3.442 0 01-.88 1.136c-.373.33-.816.592-1.328.784a5.051 5.051 0 01-1.696.272zm-2.192-5.024h4.384a2.421 2.421 0 00-.368-1.104 1.958 1.958 0 00-.768-.736 2.136 2.136 0 00-1.072-.272c-.384 0-.736.09-1.056.272a2.11 2.11 0 00-.768.736c-.192.31-.31.677-.352 1.104zM49.73 37.16c-1.44 0-2.533-.421-3.28-1.264-.736-.853-1.104-2.096-1.104-3.728 0-1.024.09-1.888.272-2.592.181-.704.448-1.285.8-1.744a4.112 4.112 0 011.328-1.12 8.039 8.039 0 011.872-.688l3.6-.912.032 1.744-3.552.928c-.512.15-.96.357-1.344.624a2.908 2.908 0 00-.928 1.008c-.224.405-.368.917-.432 1.536.32-.523.758-.933 1.312-1.232.555-.31 1.227-.464 2.016-.464.747 0 1.403.16 1.968.48.566.32 1.003.763 1.312 1.328.32.565.48 1.221.48 1.968 0 .8-.17 1.515-.512 2.144a3.523 3.523 0 01-1.472 1.456c-.64.352-1.43.528-2.368.528zm0-1.824c.662 0 1.184-.197 1.568-.592.395-.405.592-.939.592-1.6 0-.64-.192-1.163-.576-1.568-.384-.405-.912-.608-1.584-.608a2.4 2.4 0 00-1.12.256 1.92 1.92 0 00-.768.752c-.192.32-.288.71-.288 1.168 0 .427.085.805.256 1.136.17.33.416.592.736.784.33.181.726.272 1.184.272zm9.665 1.824c-.672 0-1.28-.112-1.824-.336a4.283 4.283 0 01-1.392-.944 4.503 4.503 0 01-.896-1.376 4.518 4.518 0 01-.304-1.648c0-.8.176-1.53.528-2.192a4.13 4.13 0 011.536-1.584c.672-.405 1.462-.608 2.368-.608.918 0 1.702.203 2.352.608.65.395 1.147.923 1.488 1.584a4.37 4.37 0 01.528 2.112 6.473 6.473 0 01-.048.72h-6.48c.043.427.166.8.368 1.12.214.32.48.565.8.736.33.16.683.24 1.056.24.427 0 .827-.101 1.2-.304.384-.213.646-.49.784-.832l1.84.512a3.442 3.442 0 01-.88 1.136c-.373.33-.816.592-1.328.784a5.052 5.052 0 01-1.696.272zm-2.192-5.024h4.384a2.423 2.423 0 00-.368-1.104 1.958 1.958 0 00-.768-.736 2.136 2.136 0 00-1.072-.272c-.384 0-.736.09-1.056.272a2.11 2.11 0 00-.768.736c-.192.31-.31.677-.352 1.104zm7.274 4.976v-1.904c.256-.01.486-.075.688-.192.203-.117.379-.315.528-.592.16-.288.283-.688.368-1.2.096-.512.16-1.168.192-1.968l.112-2.64h6.288V37H70.51v-6.512h-2.256l-.032.976c-.042 1.099-.149 2.01-.32 2.736-.17.725-.41 1.301-.72 1.728a2.531 2.531 0 01-1.12.896c-.448.181-.976.277-1.584.288zM74.601 37v-8.384h2.144v2.64h1.904c1.003 0 1.77.256 2.304.768.533.512.8 1.19.8 2.032 0 .565-.112 1.072-.336 1.52-.224.448-.555.8-.992 1.056-.437.245-.981.368-1.632.368h-4.192zm2.144-1.632h1.712c.288 0 .523-.059.704-.176.192-.117.33-.272.416-.464.096-.192.144-.41.144-.656a1.45 1.45 0 00-.128-.624.94.94 0 00-.416-.448c-.181-.117-.427-.176-.736-.176h-1.696v2.544z" fill="#6F5757"/></svg>