<svg width="20" height="24" fill="none" xmlns="http://www.w3.org/2000/svg"><path d="M18.567 7.63c.13-.43 0-.746-.628-.746h-2.077c-.53 0-.773.272-.903.574 0 0-1.059 2.513-2.554 4.142-.483.471-.705.623-.97.623-.13 0-.332-.152-.332-.581V7.63c0-.516-.148-.746-.585-.746H7.252c-.332 0-.53.24-.53.464 0 .488.749.602.826 1.977v2.984c0 .653-.12.773-.384.773-.706 0-2.42-2.523-3.436-5.41-.204-.561-.405-.788-.938-.788H.712c-.592 0-.712.272-.712.574 0 .536.705 3.2 3.284 6.72 1.718 2.403 4.137 3.706 6.338 3.706 1.323 0 1.485-.289 1.485-.787 0-2.296-.12-2.513.543-2.513.307 0 .836.151 2.07 1.31 1.412 1.375 1.644 1.99 2.434 1.99h2.078c.593 0 .892-.289.72-.86-.396-1.199-3.066-3.667-3.186-3.832-.306-.385-.218-.557 0-.9.004-.004 2.54-3.483 2.801-4.662z" fill="white" fill-opacity=".75"/></svg>