<svg width="95" height="26" fill="none" xmlns="http://www.w3.org/2000/svg"><g clip-path="url(#clip0_220_28)"><path d="M3.473 6.786l1.875.003 2.958 14.194-1.84-.002-.632-3.575-2.837-.003-.675 3.573-1.823-.002L3.473 6.786zm2.105 9.2L4.416 9.592l-1.16 6.393 2.322.003zm7.736 5.16c-.975 0-1.737-.2-2.287-.598-.538-.398-.91-.953-1.116-1.666-.205-.712-.307-1.606-.306-2.68l.01-9.409 1.858.003-.011 9.495c-.001 1.075.118 1.892.358 2.453.252.561.75.842 1.495.843.746.001 1.239-.279 1.48-.84.253-.56.38-1.377.382-2.451l.01-9.496 1.84.002-.01 9.408c-.002 1.075-.106 1.968-.313 2.68-.207.712-.58 1.267-1.12 1.663-.539.397-1.296.595-2.27.593zm7.288-12.868l-2.356-.003.002-1.472 6.586.008-.001 1.472-2.287-.003L22.53 21l-1.944-.003.015-12.72zm9.118 12.887c-1.364-.001-2.344-.394-2.939-1.177-.584-.795-.875-1.94-.873-3.435l.006-5.378c.002-1.472.301-2.587.898-3.346.597-.758 1.572-1.136 2.925-1.135 1.353.002 2.321.388 2.905 1.16.595.76.892 1.87.89 3.33l-.006 5.396c-.002 1.471-.3 2.604-.898 3.397-.597.794-1.566 1.19-2.908 1.188zm.002-1.559c.723 0 1.21-.215 1.463-.646.252-.432.38-1.086.38-1.962l.008-6.22c0-.864-.125-1.5-.377-1.91-.251-.42-.738-.631-1.46-.632-.734-.001-1.228.209-1.48.629-.253.408-.38 1.045-.38 1.909l-.008 6.22c-.001.875.124 1.53.376 1.962.252.433.744.65 1.478.65zm9.655-12.778l5.4.006-.002 1.472-3.456-.004-.006 4.695 2.803.003-.001 1.402-2.803-.003-.006 5.203 3.49.004-.001 1.42-5.434-.007.016-14.191zM48.42 13.6l-2.847-6.766 1.806.002 2.11 5.013 1.931-5.008 1.806.002-2.932 6.917 3.053 7.274-1.806-.002-2.264-5.346-1.966 5.341-1.806-.002L48.42 13.6zm6.258-6.755l3.456.004c1.204.001 2.075.335 2.613 1.001.55.667.823 1.642.822 2.927-.001 1.156-.295 2.055-.88 2.697-.586.642-1.434.962-2.547.96l-1.53-.001-.008 6.605-1.943-.003.017-14.19zm2.83 6.17c.573 0 1.015-.063 1.324-.191.321-.128.55-.35.689-.665.138-.316.207-.771.208-1.367 0-.724-.05-1.255-.153-1.594a1.102 1.102 0 00-.618-.72c-.298-.14-.774-.21-1.428-.211l-.91-.001-.006 4.748h.894zm5.432-6.16l2.803.002c1.41.002 2.442.301 3.095.897.664.585.995 1.543.994 2.875-.002 1.822-.577 2.925-1.724 3.31l1.97 7.114-1.875-.002-1.815-6.66-1.513-.001-.008 6.657-1.943-.002.016-14.19zm2.676 6.117c.837 0 1.433-.168 1.789-.506.367-.339.551-.952.552-1.84 0-.583-.062-1.039-.187-1.366a1.275 1.275 0 00-.67-.737c-.321-.164-.774-.246-1.358-.247h-.86l-.006 4.695h.74zm6.242-6.108l5.4.007-.002 1.471-3.457-.004-.005 4.696 2.803.003-.002 1.402-2.803-.004-.006 5.204 3.491.004-.001 1.419-5.435-.007.017-14.19zm10.27 14.361c-1.169-.001-2.063-.37-2.68-1.107-.608-.736-.945-1.747-1.012-3.032l1.72-.471c.057.911.228 1.647.514 2.208.297.561.784.842 1.46.843.505 0 .883-.14 1.136-.42.264-.291.396-.706.397-1.243 0-.584-.12-1.069-.36-1.454-.24-.386-.623-.813-1.15-1.28l-2.337-2.106c-.47-.42-.813-.87-1.03-1.35-.206-.49-.308-1.087-.307-1.787 0-1.04.294-1.845.88-2.417.585-.572 1.382-.857 2.39-.856 1.102.002 1.932.3 2.493.897.561.596.899 1.52 1.012 2.769l-1.652.454c-.056-.83-.216-1.467-.479-1.91-.252-.456-.71-.685-1.375-.686-.493 0-.871.134-1.135.402-.264.257-.397.642-.397 1.156 0 .42.068.777.205 1.069.137.28.372.567.704.86l2.354 2.104a6.947 6.947 0 011.442 1.789c.366.643.549 1.373.548 2.19-.001 1.04-.312 1.863-.932 2.47-.62.606-1.422.91-2.408.908zm8.13.01c-1.17-.002-2.064-.37-2.682-1.107-.607-.737-.944-1.748-1.011-3.033l1.72-.47c.056.91.227 1.646.513 2.207.297.562.785.842 1.46.843.505 0 .884-.139 1.136-.419.264-.292.397-.706.397-1.244.001-.583-.119-1.068-.36-1.454-.24-.386-.623-.813-1.15-1.28l-2.336-2.105c-.47-.421-.813-.871-1.03-1.35-.206-.491-.309-1.087-.308-1.788.001-1.04.295-1.845.88-2.417.585-.571 1.382-.856 2.391-.855 1.1 0 1.932.3 2.493.896.56.596.898 1.52 1.011 2.77l-1.651.453c-.057-.83-.216-1.466-.48-1.91-.251-.456-.71-.684-1.374-.685-.494 0-.872.133-1.136.402-.264.256-.396.641-.397 1.155 0 .42.068.777.205 1.07.138.28.372.566.704.859l2.354 2.105a6.947 6.947 0 011.442 1.788c.367.643.55 1.373.548 2.191-.001 1.04-.312 1.863-.931 2.47-.62.606-1.423.909-2.409.907z" fill="#fff"/><path d="M.193 2.724l38.216.044M.17 23.65l38.215.044" stroke="#fff" stroke-width="3"/></g><defs><clipPath id="clip0_220_28"><path fill="#fff" transform="rotate(.066 -40.68 169.78)" d="M0 0h94.104v25.793H0z"/></clipPath></defs></svg>